<svg xmlns="http://www.w3.org/2000/svg" xmlns:xlink="http://www.w3.org/1999/xlink" version="1.1" id="Layer_1" x="0px" y="0px" width="100px" height="100px" viewBox="0 0 100 100" enable-background="new 0 0 100 100" xml:space="preserve">
<path fill="white" d="M88.786,21.222H30.896c-0.67,0-1.214,0.543-1.214,1.214v34.4c0,0.671,0.544,1.214,1.214,1.214  c0.671,0,1.215-0.543,1.215-1.214V32.85h55.461v38.497H32.11V63.91c0-0.671-0.544-1.214-1.215-1.214  c-0.67,0-1.214,0.543-1.214,1.214v8.651c0,0.671,0.544,1.214,1.214,1.214h57.891c0.67,0,1.214-0.543,1.214-1.214V22.436  C90,21.765,89.456,21.222,88.786,21.222z M32.11,30.421V23.65h55.461v6.771H32.11z"/>
<circle fill="white" cx="73.94" cy="27.117" r="1.412"/>
<circle fill="white" cx="79.068" cy="27.117" r="1.412"/>
<circle fill="white" cx="83.791" cy="27.117" r="1.412"/>
<path fill="white" d="M36.766,65.451c0,0.671,0.544,1.214,1.215,1.214h19.836c0.671,0,1.215-0.543,1.215-1.214V53.737  c0-0.671-0.544-1.215-1.215-1.215H37.98c-0.671,0-1.215,0.544-1.215,1.215v5.634H25.431c-0.447,0-0.81,0.362-0.81,0.81  s0.362,0.81,0.81,0.81h11.335V65.451z M39.194,62.268l4.776-3.449l2.506,2.089l-4.084,3.329h-3.198V62.268z M49.356,60.649  l4.182,3.587h-8.583L49.356,60.649z M56.603,54.951v9.286h-0.577l-6.128-5.257c-0.298-0.255-0.734-0.261-1.039-0.013l-1.103,0.899  l-3.231-2.693c-0.286-0.237-0.692-0.25-0.993-0.034l-4.337,3.132v-5.319H56.603z"/>
<path fill="white" d="M37.98,49.699h19.836c0.671,0,1.215-0.544,1.215-1.215V36.77c0-0.671-0.544-1.214-1.215-1.214H37.98  c-0.671,0-1.215,0.543-1.215,1.214v11.714C36.766,49.155,37.31,49.699,37.98,49.699z M39.194,37.984h17.408v9.286h-5.425  c-0.215-1.768-1.703-3.142-3.528-3.142s-3.313,1.374-3.528,3.142h-4.927V37.984z"/>
<path fill="white" d="M63.079,58.392h20.109c0.671,0,1.215-0.543,1.215-1.214s-0.544-1.214-1.215-1.214H63.079  c-0.67,0-1.214,0.543-1.214,1.214S62.409,58.392,63.079,58.392z"/>
<path fill="white" d="M63.079,64.047h20.109c0.671,0,1.215-0.543,1.215-1.214s-0.544-1.214-1.215-1.214H63.079  c-0.67,0-1.214,0.543-1.214,1.214S62.409,64.047,63.079,64.047z"/>
<path fill="white" d="M63.079,41.304h20.109c0.671,0,1.215-0.544,1.215-1.215s-0.544-1.214-1.215-1.214H63.079  c-0.67,0-1.214,0.543-1.214,1.214S62.409,41.304,63.079,41.304z"/>
<path fill="white" d="M63.079,46.959h20.109c0.671,0,1.215-0.543,1.215-1.214s-0.544-1.215-1.215-1.215H63.079  c-0.67,0-1.214,0.544-1.214,1.215S62.409,46.959,63.079,46.959z"/>
<path fill="white" d="M20.263,53.553c0,0.671,0.544,1.214,1.215,1.214c0.67,0,1.214-0.543,1.214-1.214  c0-2.616-2.211-4.8-5.131-5.283v-1.811c0-0.671-0.544-1.214-1.214-1.214c-0.671,0-1.215,0.543-1.215,1.214v1.811  C12.212,48.752,10,50.937,10,53.553c0,2.617,2.212,4.803,5.132,5.285v5.854c-1.563-0.388-2.702-1.488-2.702-2.796  c0-0.671-0.544-1.214-1.215-1.214c-0.67,0-1.215,0.543-1.215,1.214c0,2.617,2.212,4.802,5.132,5.284v1.471  c0,0.671,0.544,1.214,1.215,1.214c0.67,0,1.214-0.543,1.214-1.214v-1.471c2.92-0.482,5.131-2.667,5.131-5.284  s-2.211-4.801-5.131-5.284v-5.854C19.124,51.146,20.263,52.246,20.263,53.553z M12.43,53.553c0-1.308,1.139-2.407,2.702-2.795v5.592  C13.568,55.961,12.43,54.862,12.43,53.553z M20.263,61.896c0,1.308-1.139,2.408-2.702,2.796V59.1  C19.124,59.488,20.263,60.588,20.263,61.896z"/>
<circle fill="white" cx="53.854" cy="57.794" r="1.699"/>
<circle fill="white" cx="47.649" cy="41.271" r="2.143"/>
</svg>
