<svg fill="white" xmlns="http://www.w3.org/2000/svg" xmlns:xlink="http://www.w3.org/1999/xlink" version="1.1" id="Layer_1" x="0px" y="0px" width="100px" height="100px" viewBox="5.0 -10.0 100.0 135.0" enable-background="new 0 0 100 100" xml:space="preserve">
<path d="M62.925,93.344c-1.734-1.275-1.918-3.19-1.918-3.19L60.358,86H39.643l-0.652,4.153c0,0-0.181,1.915-1.914,3.19  c-1.732,1.275-3.099,2.369-1.732,2.553c1.317,0.178,13.74,0.016,14.656,0.001c0.918,0.015,13.338,0.177,14.655-0.001  C66.022,95.713,64.655,94.621,62.925,93.344z"/>
<g>
	<rect x="22.751" y="49.495" width="8" height="15"/>
	<rect x="39.751" y="42.495" width="8" height="22"/>
	<rect x="55.752" y="49.495" width="8" height="15"/>
	<rect fill="#08E900" x="70.752" y="42.495" width="8" height="22"/>
	<polygon points="44.648,34.055 60.82,44.414 83.174,28.24 80.828,25 60.684,39.576 44.854,29.435 16.826,43.847 18.677,47.393  "/>
</g>
<path d="M96,16H4c-2.209,0-4,1.791-4,4v58c0,2.209,1.791,4,4,4h92c2.209,0,4-1.791,4-4V20C100,17.791,98.209,16,96,16z M94.001,70  h-88V22h88V70z"/>
</svg>
